<svg width="800" height="400" xmlns="http://www.w3.org/2000/svg">
  <!-- Stone texture background -->
  <rect width="800" height="400" fill="#A7A7A7" />
  
  <!-- Stone texture overlay -->
  <filter id="stone-texture" x="0%" y="0%" width="100%" height="100%">
    <feTurbulence type="fractalNoise" baseFrequency="0.04" numOctaves="5" result="noise" />
    <feColorMatrix type="matrix" values="1 0 0 0 0 0 1 0 0 0 0 0 1 0 0 0 0 0 0.5 0" result="coloredNoise" />
    <feComposite operator="in" in="coloredNoise" in2="SourceGraphic" result="texturedStone" />
  </filter>
  <rect width="800" height="400" filter="url(#stone-texture)" opacity="0.4" />
  
  <!-- Cracks in the stone -->
  <path d="M200,50 Q250,100 200,150 Q150,180 180,250 Q200,300 150,350" stroke="#696969" stroke-width="1.5" fill="none" />
  <path d="M400,30 Q450,80 420,120 Q380,170 410,220 Q450,280 430,350" stroke="#696969" stroke-width="1.5" fill="none" />
  <path d="M600,80 Q550,130 580,190 Q620,230 590,280 Q570,330 600,380" stroke="#696969" stroke-width="1.5" fill="none" />
  
  <!-- Tamil inscription-like shapes -->
  <g fill="none" stroke="#333333" stroke-width="2.5">
    <!-- Row 1 -->
    <path d="M150,80 Q160,60 170,80 Q180,100 190,80 Q200,60 210,80" />
    <path d="M230,80 C240,70 250,60 260,80 S280,100 290,80" />
    <path d="M310,80 Q330,60 340,80 Q350,100 370,80" />
    <path d="M390,80 C400,70 410,60 420,80 S440,100 450,80" />
    <path d="M470,80 Q490,60 500,80 Q510,100 530,80" />
    <path d="M550,80 C560,70 570,60 580,80 S600,100 610,80" />
    <path d="M630,80 Q650,60 660,80 Q670,100 690,80" />
    
    <!-- Row 2 -->
    <path d="M170,120 C180,110 190,100 200,120 S220,140 230,120" />
    <path d="M250,120 Q270,100 280,120 Q290,140 310,120" />
    <path d="M330,120 C340,110 350,100 360,120 S380,140 390,120" />
    <path d="M410,120 Q430,100 440,120 Q450,140 470,120" />
    <path d="M490,120 C500,110 510,100 520,120 S540,140 550,120" />
    <path d="M570,120 Q590,100 600,120 Q610,140 630,120" />
    
    <!-- Row 3 -->
    <path d="M150,160 Q160,140 170,160 Q180,180 190,160 Q200,140 210,160" />
    <path d="M230,160 C240,150 250,140 260,160 S280,180 290,160" />
    <path d="M310,160 Q330,140 340,160 Q350,180 370,160" />
    <path d="M390,160 C400,150 410,140 420,160 S440,180 450,160" />
    <path d="M470,160 Q490,140 500,160 Q510,180 530,160" />
    <path d="M550,160 C560,150 570,140 580,160 S600,180 610,160" />
    <path d="M630,160 Q650,140 660,160 Q670,180 690,160" />
    
    <!-- Row 4 -->
    <path d="M170,200 C180,190 190,180 200,200 S220,220 230,200" />
    <path d="M250,200 Q270,180 280,200 Q290,220 310,200" />
    <path d="M330,200 C340,190 350,180 360,200 S380,220 390,200" />
    <path d="M410,200 Q430,180 440,200 Q450,220 470,200" />
    <path d="M490,200 C500,190 510,180 520,200 S540,220 550,200" />
    <path d="M570,200 Q590,180 600,200 Q610,220 630,200" />
    
    <!-- Row 5 -->
    <path d="M150,240 Q160,220 170,240 Q180,260 190,240 Q200,220 210,240" />
    <path d="M230,240 C240,230 250,220 260,240 S280,260 290,240" />
    <path d="M310,240 Q330,220 340,240 Q350,260 370,240" />
    <path d="M390,240 C400,230 410,220 420,240 S440,260 450,240" />
    <path d="M470,240 Q490,220 500,240 Q510,260 530,240" />
    <path d="M550,240 C560,230 570,220 580,240 S600,260 610,240" />
    <path d="M630,240 Q650,220 660,240 Q670,260 690,240" />
    
    <!-- Row 6 -->
    <path d="M170,280 C180,270 190,260 200,280 S220,300 230,280" />
    <path d="M250,280 Q270,260 280,280 Q290,300 310,280" />
    <path d="M330,280 C340,270 350,260 360,280 S380,300 390,280" />
    <path d="M410,280 Q430,260 440,280 Q450,300 470,280" />
    <path d="M490,280 C500,270 510,260 520,280 S540,300 550,280" />
    <path d="M570,280 Q590,260 600,280 Q610,300 630,280" />
    
    <!-- Row 7 -->
    <path d="M150,320 Q160,300 170,320 Q180,340 190,320 Q200,300 210,320" />
    <path d="M230,320 C240,310 250,300 260,320 S280,340 290,320" />
    <path d="M310,320 Q330,300 340,320 Q350,340 370,320" />
    <path d="M390,320 C400,310 410,300 420,320 S440,340 450,320" />
    <path d="M470,320 Q490,300 500,320 Q510,340 530,320" />
    <path d="M550,320 C560,310 570,300 580,320 S600,340 610,320" />
    <path d="M630,320 Q650,300 660,320 Q670,340 690,320" />
  </g>
  
  <!-- Text label -->
  <text x="400" y="380" text-anchor="middle" fill="#333333" font-family="serif" font-size="14">Ancient Tamil Stone Inscription</text>
</svg>